<?xml version="1.0" standalone="no"?>
<!DOCTYPE svg PUBLIC "-//W3C//DTD SVG 20010904//EN"
 "http://www.w3.org/TR/2001/REC-SVG-20010904/DTD/svg10.dtd">
<svg version="1.0" xmlns="http://www.w3.org/2000/svg"
 width="225.000000pt" height="225.000000pt" viewBox="0 0 225.000000 225.000000"
 preserveAspectRatio="xMidYMid meet">
<metadata>
Created by potrace 1.14, written by Peter Selinger 2001-2017
</metadata>
<g transform="translate(0.000000,225.000000) scale(0.100000,-0.100000)"
fill="#000000" stroke="none">
<path d="M975 2239 c-346 -43 -667 -265 -839 -580 -234 -427 -154 -980 191
-1322 105 -104 179 -158 298 -217 318 -157 682 -157 1000 0 542 269 772 922
521 1474 -97 213 -284 410 -496 525 -196 105 -442 149 -675 120z m689 -629
c25 -9 26 -14 26 -80 l0 -70 -49 0 c-68 0 -89 -20 -97 -92 l-7 -58 72 0 72 0
-3 -67 -3 -68 -69 -3 -69 -3 4 -242 4 -242 -87 -3 -88 -3 0 251 0 250 -50 0
-50 0 0 65 0 65 49 0 48 0 7 70 c8 77 23 120 56 163 48 60 164 94 234 67z
m-692 -90 c126 -39 198 -134 198 -264 0 -102 -16 -142 -80 -206 -66 -66 -130
-90 -262 -98 l-87 -5 -3 -131 -3 -131 -85 0 -85 0 -3 428 -2 427 174 0 c145 0
185 -3 238 -20z"/>
<path d="M740 1244 l0 -137 78 5 c119 7 173 46 176 126 2 97 -54 142 -179 142
l-75 0 0 -136z"/>
</g>
</svg>
